# Exported from Wings 3D 0.98.26b
mtllib skybox.mtl
o cube1
#8 vertices, 6 faces
v -2.0 -0.0 2.0
v -2.0 2.0 2.0
v 2.0 2.0 2.0
v 2.0 -0.0 2.0
v -2.0 -0.0 -2.0
v -2.0 2.0 -2.0
v 2.0 2.0 -2.0
v 2.0 -0.0 -2.0
vn -0.57735027 -0.57735027 0.57735027
vn -0.57735027 0.57735027 0.57735027
vn 0.57735027 0.57735027 0.57735027
vn 0.57735027 -0.57735027 0.57735027
vn -0.57735027 -0.57735027 -0.57735027
vn -0.57735027 0.57735027 -0.57735027
vn 0.57735027 0.57735027 -0.57735027
vn 0.57735027 -0.57735027 -0.57735027
vt 0.25 0.0
vt 0.75 0.0

vt 0.0 0.25
vt 0.25 0.25
vt 0.75 0.25
vt 1.0 0.25

vt 0.0 0.75
vt 0.25 0.75
vt 0.75 0.75
vt 1.0 0.75

vt 0.25 1.0
vt 0.75 1.0

g cube1_default
usemtl skybox
f 3/9/3 2/8/2 1/11/1 4/12/4
f 5/3/5 1/7/1 2/8/2 6/4/6
f 6/4/6 2/8/2 3/9/3 7/5/7
f 7/5/7 3/9/3 4/10/4 8/6/8
f 8/2/8 5/1/5 6/4/6 7/5/7