# File produced by Open Asset Import Library (http://www.assimp.sf.net)
# (assimp v3.1.187496374)

mtllib sphere.mtl

# 130 vertex positions
v  0 1.5 0
v  0.473978 1.40954 0.196328
v  0.51303 1.40954 0
v  0.362767 1.40954 0.362767
v  0.196328 1.40954 0.473978
v  0 1.40954 0.51303
v  -0.196328 1.40954 0.473978
v  -0.362767 1.40954 0.362767
v  -0.473978 1.40954 0.196328
v  -0.51303 1.40954 0
v  -0.473978 1.40954 -0.196328
v  -0.362767 1.40954 -0.362767
v  -0.196328 1.40954 -0.473978
v  0 1.40954 -0.51303
v  0.196328 1.40954 -0.473978
v  0.362767 1.40954 -0.362767
v  0.473978 1.40954 -0.196328
v  0 1.14907 -0.964181
v  0.368976 1.14907 -0.890787
v  0.681779 1.14907 -0.681779
v  0.890787 1.14907 -0.368976
v  0.964181 1.14907 0
v  0.890787 1.14907 0.368976
v  1.20015 0.75 0.49712
v  1.29904 0.75 0
v  1.20015 0.75 -0.49712
v  0.918559 0.75 -0.918559
v  1.36477 0.260472 -0.565304
v  1.47721 0.260472 0
v  1.36477 0.260472 0.565304
v  1.36477 -0.260472 0.565304
v  1.47721 -0.260472 0
v  1.04455 0.260472 -1.04455
v  1.36477 -0.260472 -0.565304
v  0.49712 0.75 -1.20015
v  0.565304 0.260472 -1.36477
v  1.04455 -0.260472 -1.04455
v  1.20015 -0.75 -0.49712
v  1.29904 -0.75 0
v  0.565304 -0.260472 -1.36477
v  0.918559 -0.75 -0.918559
v  0 0.75 -1.29904
v  0 0.260472 -1.47721
v  0 -0.260472 -1.47721
v  0.49712 -0.75 -1.20015
v  0.681779 -1.14907 -0.681779
v  0.890787 -1.14907 -0.368976
v  0 -0.75 -1.29904
v  0.368976 -1.14907 -0.890787
v  -0.565304 0.260472 -1.36477
v  -0.565304 -0.260472 -1.36477
v  -0.49712 -0.75 -1.20015
v  0 -1.14907 -0.964181
v  0.196328 -1.40954 -0.473978
v  0.362767 -1.40954 -0.362767
v  -0.368976 -1.14907 -0.890787
v  0 -1.40954 -0.51303
v  -1.04455 -0.260472 -1.04455
v  -0.918559 -0.75 -0.918559
v  -0.681779 -1.14907 -0.681779
v  -0.196328 -1.40954 -0.473978
v  0 -1.5 0
v  0.473978 -1.40954 -0.196328
v  0.51303 -1.40954 0
v  0.964181 -1.14907 0
v  0.473978 -1.40954 0.196328
v  0.890787 -1.14907 0.368976
v  0.362767 -1.40954 0.362767
v  1.20015 -0.75 0.49712
v  0.681779 -1.14907 0.681779
v  0.918559 -0.75 0.918559
v  0.368976 -1.14907 0.890787
v  0.196328 -1.40954 0.473978
v  0 -1.40954 0.51303
v  0.49712 -0.75 1.20015
v  0 -1.14907 0.964181
v  1.04455 -0.260472 1.04455
v  1.04455 0.260472 1.04455
v  0.565304 -0.260472 1.36477
v  0 -0.75 1.29904
v  -0.368976 -1.14907 0.890787
v  -0.196328 -1.40954 0.473978
v  -0.362767 -1.40954 0.362767
v  -0.49712 -0.75 1.20015
v  -0.681779 -1.14907 0.681779
v  0 -0.260472 1.47721
v  0.565304 0.260472 1.36477
v  0 0.260472 1.47721
v  -0.565304 -0.260472 1.36477
v  -0.918559 -0.75 0.918559
v  -0.890787 -1.14907 0.368976
v  -0.473978 -1.40954 0.196328
v  -0.51303 -1.40954 0
v  -1.20015 -0.75 0.49712
v  -0.964181 -1.14907 0
v  -1.04455 -0.260472 1.04455
v  -1.36477 -0.260472 0.565304
v  -1.29904 -0.75 0
v  -0.890787 -1.14907 -0.368976
v  -0.473978 -1.40954 -0.196328
v  -0.362767 -1.40954 -0.362767
v  -1.20015 -0.75 -0.49712
v  -1.47721 -0.260472 0
v  -1.36477 -0.260472 -0.565304
v  -1.36477 0.260472 0.565304
v  -1.47721 0.260472 0
v  -1.36477 0.260472 -0.565304
v  -1.20015 0.75 0.49712
v  -1.29904 0.75 0
v  -1.20015 0.75 -0.49712
v  -1.04455 0.260472 -1.04455
v  -0.918559 0.75 -0.918559
v  -0.964181 1.14907 0
v  -0.890787 1.14907 -0.368976
v  -0.890787 1.14907 0.368976
v  -0.681779 1.14907 -0.681779
v  -0.368976 1.14907 -0.890787
v  -0.49712 0.75 -1.20015
v  -0.681779 1.14907 0.681779
v  -0.368976 1.14907 0.890787
v  -0.918559 0.75 0.918559
v  -0.49712 0.75 1.20015
v  -1.04455 0.260472 1.04455
v  0 1.14907 0.964181
v  0 0.75 1.29904
v  -0.565304 0.260472 1.36477
v  0.368976 1.14907 0.890787
v  0.49712 0.75 1.20015
v  0.681779 1.14907 0.681779
v  0.918559 0.75 0.918559

# 0 UV coordinates

# 130 vertex normals
vn 0 1 0
vn 0.336384 0.928201 0.159022
vn 0.371633 0.928201 0.0181888
vn 0.249923 0.928201 0.275646
vn 0.125414 0.928201 0.350305
vn -0.0181888 0.928201 0.371633
vn -0.159022 0.928201 0.336384
vn -0.275646 0.928201 0.249923
vn -0.350305 0.928201 0.125414
vn -0.371633 0.928201 -0.0181888
vn -0.336384 0.928201 -0.159022
vn -0.249923 0.928201 -0.275646
vn -0.125414 0.928201 -0.350305
vn 0.0181888 0.928201 -0.371633
vn 0.159022 0.928201 -0.336384
vn 0.275646 0.928201 -0.249923
vn 0.350305 0.928201 -0.125414
vn 0.0123586 0.756857 -0.653464
vn 0.261488 0.756857 -0.598992
vn 0.470807 0.756857 -0.45333
vn 0.608451 0.756857 -0.238652
vn 0.653464 0.756857 0.0123586
vn 0.598992 0.756857 0.261488
vn 0.800366 0.494919 0.338333
vn 0.868916 0.494919 0.00629211
vn 0.805182 0.494919 -0.326707
vn 0.618866 0.494919 -0.609967
vn 0.909844 0.173648 -0.37687
vn 0.984808 0.173648 6.42251e-09
vn 0.909844 0.173648 0.37687
vn 0.912952 -0.168244 0.37177
vn 0.985728 -0.168244 -0.00590089
vn 0.696364 0.173648 -0.696364
vn 0.908436 -0.168244 -0.382673
vn 0.338333 0.494919 -0.800366
vn 0.37687 0.173648 -0.909844
vn 0.692842 -0.168244 -0.701187
vn 0.80153 -0.489418 -0.343539
vn 0.871984 -0.489418 -0.0106565
vn 0.37177 -0.168244 -0.912952
vn 0.609051 -0.489418 -0.624121
vn 0.00629211 0.494919 -0.868916
vn 6.42251e-09 0.173648 -0.984808
vn -0.00590089 -0.168244 -0.985728
vn 0.323849 -0.489418 -0.809687
vn 0.457546 -0.750758 -0.47646
vn 0.605051 -0.750758 -0.265096
vn -0.0106565 -0.489418 -0.871984
vn 0.240385 -0.750758 -0.615287
vn -0.37687 0.173648 -0.909844
vn -0.382673 -0.168244 -0.908436
vn -0.343539 -0.489418 -0.801531
vn -0.0133738 -0.750758 -0.660442
vn 0.130885 -0.939693 -0.315985
vn 0.241845 -0.939693 -0.241845
vn -0.265096 -0.750758 -0.605051
vn 1.84929e-08 -0.939693 -0.34202
vn -0.701187 -0.168244 -0.692842
vn -0.624121 -0.489418 -0.609051
vn -0.47646 -0.750758 -0.457546
vn -0.130885 -0.939693 -0.315985
vn -2.31161e-09 -1 0
vn 0.315985 -0.939693 -0.130885
vn 0.34202 -0.939693 1.84929e-08
vn 0.660442 -0.750758 -0.0133738
vn 0.315985 -0.939693 0.130885
vn 0.615287 -0.750758 0.240385
vn 0.241845 -0.939693 0.241845
vn 0.809687 -0.489418 0.323849
vn 0.47646 -0.750758 0.457546
vn 0.624121 -0.489418 0.609051
vn 0.265096 -0.750758 0.605051
vn 0.130885 -0.939693 0.315985
vn -1.7915e-08 -0.939693 0.34202
vn 0.343539 -0.489418 0.801531
vn 0.0133738 -0.750758 0.660442
vn 0.701187 -0.168244 0.692842
vn 0.696364 0.173648 0.696364
vn 0.382673 -0.168244 0.908436
vn 0.0106565 -0.489418 0.871984
vn -0.240385 -0.750758 0.615287
vn -0.130885 -0.939693 0.315985
vn -0.241845 -0.939693 0.241845
vn -0.323849 -0.489418 0.809687
vn -0.457546 -0.750758 0.47646
vn 0.00590089 -0.168244 0.985728
vn 0.37687 0.173648 0.909844
vn -6.42251e-09 0.173648 0.984808
vn -0.37177 -0.168244 0.912952
vn -0.609051 -0.489418 0.624121
vn -0.605051 -0.750758 0.265096
vn -0.315985 -0.939693 0.130885
vn -0.34202 -0.939693 -1.7915e-08
vn -0.80153 -0.489418 0.343539
vn -0.660442 -0.750758 0.0133738
vn -0.692842 -0.168244 0.701187
vn -0.908436 -0.168244 0.382673
vn -0.871984 -0.489418 0.0106565
vn -0.615287 -0.750758 -0.240385
vn -0.315985 -0.939693 -0.130885
vn -0.241845 -0.939693 -0.241845
vn -0.809687 -0.489418 -0.323849
vn -0.985728 -0.168244 0.00590089
vn -0.912952 -0.168244 -0.37177
vn -0.909844 0.173648 0.37687
vn -0.984808 0.173648 -6.42251e-09
vn -0.909844 0.173648 -0.37687
vn -0.805182 0.494919 0.326707
vn -0.868916 0.494919 -0.00629211
vn -0.800366 0.494919 -0.338333
vn -0.696364 0.173648 -0.696364
vn -0.609967 0.494919 -0.618866
vn -0.653464 0.756857 -0.0123586
vn -0.598992 0.756857 -0.261488
vn -0.608451 0.756857 0.238652
vn -0.45333 0.756857 -0.470807
vn -0.238652 0.756857 -0.608451
vn -0.326707 0.494919 -0.805182
vn -0.470807 0.756857 0.45333
vn -0.261488 0.756857 0.598992
vn -0.618866 0.494919 0.609967
vn -0.338333 0.494919 0.800366
vn -0.696364 0.173648 0.696364
vn -0.0123586 0.756857 0.653464
vn -0.00629211 0.494919 0.868916
vn -0.37687 0.173648 0.909844
vn 0.238652 0.756857 0.608451
vn 0.326707 0.494919 0.805182
vn 0.45333 0.756857 0.470807
vn 0.609967 0.494919 0.618866

# Mesh '<OFFRoot>' with 256 faces
g <OFFRoot>
usemtl $Material_0
f  1//1 2//2 3//3
f  1//1 4//4 2//2
f  1//1 5//5 4//4
f  1//1 6//6 5//5
f  1//1 7//7 6//6
f  1//1 8//8 7//7
f  1//1 9//9 8//8
f  1//1 10//10 9//9
f  1//1 11//11 10//10
f  1//1 12//12 11//11
f  1//1 13//13 12//12
f  1//1 14//14 13//13
f  1//1 15//15 14//14
f  1//1 16//16 15//15
f  1//1 17//17 16//16
f  1//1 3//3 17//17
f  13//13 14//14 18//18
f  14//14 15//15 19//19
f  14//14 19//19 18//18
f  15//15 16//16 20//20
f  15//15 20//20 19//19
f  16//16 17//17 21//21
f  16//16 21//21 20//20
f  17//17 3//3 22//22
f  17//17 22//22 21//21
f  3//3 2//2 23//23
f  3//3 23//23 22//22
f  22//22 23//23 24//24
f  22//22 24//24 25//25
f  21//21 22//22 25//25
f  20//20 21//21 26//26
f  21//21 25//25 26//26
f  19//19 20//20 27//27
f  20//20 26//26 27//27
f  27//27 26//26 28//28
f  26//26 25//25 29//29
f  26//26 29//29 28//28
f  25//25 24//24 30//30
f  25//25 30//30 29//29
f  29//29 30//30 31//31
f  29//29 31//31 32//32
f  28//28 29//29 32//32
f  27//27 28//28 33//33
f  33//33 28//28 34//34
f  28//28 32//32 34//34
f  19//19 27//27 35//35
f  35//35 27//27 33//33
f  35//35 33//33 36//36
f  36//36 33//33 37//37
f  33//33 34//34 37//37
f  37//37 34//34 38//38
f  34//34 32//32 39//39
f  34//34 39//39 38//38
f  36//36 37//37 40//40
f  40//40 37//37 41//41
f  37//37 38//38 41//41
f  42//42 35//35 36//36
f  42//42 36//36 43//43
f  43//43 36//36 40//40
f  43//43 40//40 44//44
f  44//44 40//40 45//45
f  40//40 41//41 45//45
f  45//45 41//41 46//46
f  41//41 38//38 47//47
f  41//41 47//47 46//46
f  44//44 45//45 48//48
f  48//48 45//45 49//49
f  45//45 46//46 49//49
f  50//50 43//43 44//44
f  50//50 44//44 51//51
f  51//51 44//44 48//48
f  51//51 48//48 52//52
f  52//52 48//48 53//53
f  48//48 49//49 53//53
f  53//53 49//49 54//54
f  49//49 46//46 55//55
f  49//49 55//55 54//54
f  52//52 53//53 56//56
f  56//56 53//53 57//57
f  53//53 54//54 57//57
f  58//58 51//51 52//52
f  58//58 52//52 59//59
f  59//59 52//52 56//56
f  59//59 56//56 60//60
f  60//60 56//56 61//61
f  56//56 57//57 61//61
f  61//61 57//57 62//62
f  57//57 54//54 62//62
f  54//54 55//55 62//62
f  46//46 63//63 55//55
f  55//55 63//63 62//62
f  46//46 47//47 63//63
f  47//47 64//64 63//63
f  63//63 64//64 62//62
f  38//38 65//65 47//47
f  47//47 65//65 64//64
f  65//65 66//66 64//64
f  64//64 66//66 62//62
f  39//39 67//67 65//65
f  65//65 67//67 66//66
f  38//38 39//39 65//65
f  67//67 68//68 66//66
f  66//66 68//68 62//62
f  39//39 69//69 67//67
f  69//69 70//70 67//67
f  67//67 70//70 68//68
f  32//32 69//69 39//39
f  32//32 31//31 69//69
f  31//31 71//71 69//69
f  69//69 71//71 70//70
f  71//71 72//72 70//70
f  70//70 72//72 73//73
f  70//70 73//73 68//68
f  68//68 73//73 62//62
f  72//72 74//74 73//73
f  73//73 74//74 62//62
f  71//71 75//75 72//72
f  75//75 76//76 72//72
f  72//72 76//76 74//74
f  31//31 77//77 71//71
f  77//77 75//75 71//71
f  30//30 77//77 31//31
f  30//30 78//78 77//77
f  78//78 79//79 77//77
f  77//77 79//79 75//75
f  79//79 80//80 75//75
f  75//75 80//80 76//76
f  80//80 81//81 76//76
f  76//76 81//81 82//82
f  76//76 82//82 74//74
f  74//74 82//82 62//62
f  81//81 83//83 82//82
f  82//82 83//83 62//62
f  80//80 84//84 81//81
f  84//84 85//85 81//81
f  81//81 85//85 83//83
f  79//79 86//86 80//80
f  86//86 84//84 80//80
f  78//78 87//87 79//79
f  87//87 86//86 79//79
f  87//87 88//88 86//86
f  88//88 89//89 86//86
f  86//86 89//89 84//84
f  89//89 90//90 84//84
f  84//84 90//90 85//85
f  90//90 91//91 85//85
f  85//85 91//91 92//92
f  85//85 92//92 83//83
f  83//83 92//92 62//62
f  91//91 93//93 92//92
f  92//92 93//93 62//62
f  90//90 94//94 91//91
f  94//94 95//95 91//91
f  91//91 95//95 93//93
f  89//89 96//96 90//90
f  96//96 94//94 90//90
f  96//96 97//97 94//94
f  97//97 98//98 94//94
f  94//94 98//98 95//95
f  98//98 99//99 95//95
f  95//95 99//99 100//100
f  95//95 100//100 93//93
f  93//93 100//100 62//62
f  99//99 101//101 100//100
f  100//100 101//101 62//62
f  101//101 61//61 62//62
f  99//99 60//60 101//101
f  60//60 61//61 101//101
f  98//98 102//102 99//99
f  102//102 60//60 99//99
f  97//97 103//103 98//98
f  103//103 102//102 98//98
f  103//103 104//104 102//102
f  104//104 59//59 102//102
f  102//102 59//59 60//60
f  105//105 106//106 103//103
f  105//105 103//103 97//97
f  106//106 104//104 103//103
f  106//106 107//107 104//104
f  107//107 58//58 104//104
f  104//104 58//58 59//59
f  108//108 109//109 106//106
f  108//108 106//106 105//105
f  109//109 107//107 106//106
f  109//109 110//110 107//107
f  110//110 111//111 107//107
f  107//107 111//111 58//58
f  111//111 51//51 58//58
f  110//110 112//112 111//111
f  112//112 50//50 111//111
f  111//111 50//50 51//51
f  113//113 114//114 110//110
f  113//113 110//110 109//109
f  114//114 112//112 110//110
f  115//115 113//113 109//109
f  115//115 109//109 108//108
f  9//9 10//10 113//113
f  9//9 113//113 115//115
f  10//10 114//114 113//113
f  10//10 11//11 114//114
f  11//11 116//116 114//114
f  114//114 116//116 112//112
f  11//11 12//12 116//116
f  12//12 117//117 116//116
f  116//116 117//117 118//118
f  116//116 118//118 112//112
f  12//12 13//13 117//117
f  13//13 18//18 117//117
f  117//117 18//18 42//42
f  117//117 42//42 118//118
f  112//112 118//118 50//50
f  118//118 42//42 43//43
f  118//118 43//43 50//50
f  18//18 35//35 42//42
f  18//18 19//19 35//35
f  8//8 9//9 115//115
f  8//8 115//115 119//119
f  119//119 115//115 108//108
f  7//7 8//8 119//119
f  7//7 119//119 120//120
f  120//120 119//119 121//121
f  119//119 108//108 121//121
f  121//121 108//108 105//105
f  120//120 121//121 122//122
f  122//122 121//121 123//123
f  121//121 105//105 123//123
f  6//6 7//7 120//120
f  6//6 120//120 124//124
f  124//124 120//120 122//122
f  124//124 122//122 125//125
f  125//125 122//122 126//126
f  122//122 123//123 126//126
f  126//126 123//123 96//96
f  123//123 105//105 97//97
f  123//123 97//97 96//96
f  125//125 126//126 88//88
f  88//88 126//126 89//89
f  126//126 96//96 89//89
f  127//127 124//124 125//125
f  127//127 125//125 128//128
f  128//128 125//125 88//88
f  128//128 88//88 87//87
f  129//129 127//127 128//128
f  129//129 128//128 130//130
f  130//130 128//128 87//87
f  4//4 5//5 127//127
f  4//4 127//127 129//129
f  5//5 124//124 127//127
f  2//2 4//4 129//129
f  2//2 129//129 23//23
f  23//23 129//129 130//130
f  23//23 130//130 24//24
f  24//24 130//130 78//78
f  130//130 87//87 78//78
f  24//24 78//78 30//30
f  5//5 6//6 124//124

